<svg width="100" height="100" viewBox="0 0 100 100" fill="none" xmlns="http://www.w3.org/2000/svg">
    <path d="M50 2.5 C 27.5 2.5, 10 20, 10 42.5 C 10 60, 25 70, 25 80 L 75 80 C 75 70, 90 60, 90 42.5 C 90 20, 72.5 2.5, 50 2.5 Z" stroke="#ab9fc2" stroke-width="5" fill="none"/>
    <path d="M30 45 C 40 35, 60 55, 70 45" stroke="#ab9fc2" stroke-width="4" fill="none" stroke-linecap="round"/>
    <path d="M35 80 L 65 80 C 65 85, 60 90, 50 90 C 40 90, 35 85, 35 80" stroke="#ab9fc2" stroke-width="5" fill="none"/>
    <path d="M40 90 L 60 90" stroke="#ab9fc2" stroke-width="5" fill="none" stroke-linecap="round"/>
     <path d="M45 95 L 55 95" stroke="#ab9fc2" stroke-width="5" fill="none" stroke-linecap="round"/>
</svg>
